<svg xmlns="http://www.w3.org/2000/svg" viewBox="0 0 19.53 19.11"><title>search</title><g id="Layer_2" data-name="Layer 2"><g id="_1" data-name="1"><path d="M14.92,13.82l1.44,1.37L19.3,18a.65.65,0,0,1,.15.8.62.62,0,0,1-1,.16L16.62,17.2l-2.5-2.36-.07-.07-.28.25a8.17,8.17,0,0,1-4.08,1.89,8.36,8.36,0,0,1-9.4-6.17A8.71,8.71,0,0,1,0,7.82,8.41,8.41,0,0,1,6.56.21a8.06,8.06,0,0,1,7.87,2.44A8.06,8.06,0,0,1,16.6,7,8.47,8.47,0,0,1,15,13.71ZM8.36,15.74c.27,0,.54,0,.8-.06s.29,0,.44-.06a6.88,6.88,0,0,0,4.22-2.49,7.1,7.1,0,0,0,1.39-6.51A7.07,7.07,0,0,0,7.29,1.38,6.78,6.78,0,0,0,2.82,4a7.13,7.13,0,0,0-1.28,6.46A7.13,7.13,0,0,0,8.36,15.74Z" style="fill-rule:evenodd"/></g></g></svg>