<svg id="Layer_1" data-name="Layer 1" xmlns="http://www.w3.org/2000/svg" viewBox="0 0 27.75 670.02"><title>Sprite</title><path d="M19.7,114.65a.36.36,0,0,1-.12.27l-5.46,5.46a.36.36,0,0,1-.51,0l0,0-5.46-5.46a.36.36,0,0,1,0-.51l0,0,.59-.58a.36.36,0,0,1,.27-.12.32.32,0,0,1,.26.12l4.61,4.6,4.61-4.6a.36.36,0,0,1,.27-.12.32.32,0,0,1,.26.12l.59.58A.36.36,0,0,1,19.7,114.65Z" transform="translate(0.04 0)" style="fill:#5f5f5f"/><path d="M20.87,600.21h-.1v-4.84a1.25,1.25,0,0,0-1.26-1.26h0a1.26,1.26,0,0,0-.88.37l-.54.54a.48.48,0,0,0-.35-.07l-1.37.22a.48.48,0,0,0-.4.55h0a.5.5,0,0,0,.13.26l1.65,1.7a.47.47,0,0,0,.66,0h0a.48.48,0,0,0,.14-.25l.28-1.39a.51.51,0,0,0-.08-.36l.54-.54a.31.31,0,0,1,.22-.09h0a.27.27,0,0,1,.21.09.32.32,0,0,1,.08.21v2.74a2.1,2.1,0,0,1-2.08,2.1H6.83A1,1,0,0,0,6.19,602a2.24,2.24,0,0,1,.65,1.12l.6,2.13A2.37,2.37,0,0,0,9.63,607l-.42.86a.35.35,0,0,0,.15.46.32.32,0,0,0,.43-.13v0h0A2.08,2.08,0,0,1,11.68,607H16a2.07,2.07,0,0,1,1.87,1.17h0a.32.32,0,0,0,.29.18.35.35,0,0,0,.34-.33.22.22,0,0,0,0-.16l-.42-.86a2.36,2.36,0,0,0,2.2-1.72l.6-2.13a2.24,2.24,0,0,1,.65-1.12,1,1,0,0,0-.6-1.82Z" transform="translate(0.04 0)" style="fill:#383938"/><path d="M13.83,21h-7c-2.67,0-3.89-1.2-4-3.82v-5.5a1,1,0,0,1,1-1h0a1,1,0,0,1,1,1v5.41c0,1.63.42,1.91,2,1.91h14c1.73,0,2-.43,2.05-1.85V11.66a1,1,0,0,1,1-1H24a1,1,0,0,1,.94,1v5.49c-.08,2.6-1.32,3.77-4,3.79C18.51,21,16.17,21,13.83,21Z" transform="translate(0.04 0)" style="fill:#fff"/><path d="M13.87,1.68h0a1,1,0,0,1,1,1V16.13a1,1,0,0,1-1,1h0a1,1,0,0,1-1-1V2.68A1,1,0,0,1,13.87,1.68Z" transform="translate(0.04 0)" style="fill:#fff"/><path d="M20.17,8.07,14.53,3a1,1,0,0,0-1.34,0L7.54,8.07A1,1,0,0,1,6.13,8h0A1,1,0,0,1,6.2,6.59l7-6.33a1,1,0,0,1,1.34,0l7,6.33a1,1,0,0,1,0,1.41h0A1,1,0,0,1,20.17,8.07Z" transform="translate(0.04 0)" style="fill:#fff"/><polyline points="13.9 -2 13.9 -2 13.9 -2" style="fill:#fff"/><path d="M12.39,67.14a.56.56,0,0,0,.56-.56V62.81a.56.56,0,1,0-1.12,0h0v3.77a.56.56,0,0,0,.56.56Z" transform="translate(0.04 0)" style="fill:#fff"/><path d="M15.31,67.14a.56.56,0,0,0,.56-.56V62.81a.56.56,0,1,0-1.12,0h0v3.77a.56.56,0,0,0,.56.56Z" transform="translate(0.04 0)" style="fill:#fff"/><path d="M18.51,57.67H15.38A.43.43,0,0,1,15,57.5a.55.55,0,0,0-.43-.2H13.09a.55.55,0,0,0-.43.2.42.42,0,0,1-.34.17H9.19A1.43,1.43,0,0,0,7.8,59.12a.38.38,0,0,1,0,.1v.9a1.06,1.06,0,0,0,1,1.06h0a.42.42,0,0,1,.43.41h0v6.72a1,1,0,0,0,1,1h7.22a1,1,0,0,0,1-1V61.6a.42.42,0,0,1,.42-.42h0a1.06,1.06,0,0,0,1-1.06v-.9a1.41,1.41,0,0,0-1.28-1.54ZM17.33,67.76a.42.42,0,0,1-.42.42H10.8a.42.42,0,0,1-.43-.41h0V61.6a.42.42,0,0,1,.42-.42H16.9a.42.42,0,0,1,.43.41h0Zm.86-7.7H9.51a.65.65,0,0,1-.57-.67.59.59,0,0,1,.57-.61h8.57a.59.59,0,0,1,.67.49.41.41,0,0,1,0,.11A.65.65,0,0,1,18.19,60.06Z" transform="translate(0.04 0)" style="fill:#fff"/><path d="M14.65,332.27l4.52-4.5a.55.55,0,0,0-.78-.78h0l-4.52,4.5-4.56-4.57a.54.54,0,0,0-.76,0l0,0a.56.56,0,0,0,0,.79l4.55,4.56-4.57,4.55a.54.54,0,0,0,0,.76l0,0a.56.56,0,0,0,.78,0l4.57-4.55,4.55,4.55a.56.56,0,0,0,.78,0,.56.56,0,0,0,0-.79Z" transform="translate(0.04 0)" style="fill:#606060"/><path d="M21.91,667.31a.8.8,0,0,0,.77-.57l1.3-4.13,3.39-2.55a.83.83,0,0,0,.29-.92L26.36,655l1.3-4.13a.82.82,0,0,0-.29-.91L24,647.41l-1.3-4.13a.8.8,0,0,0-.77-.57H17.72l-3.39-2.55a.81.81,0,0,0-1,0L10,642.71H5.79a.8.8,0,0,0-.77.57l-1.3,4.13L.33,650a.84.84,0,0,0-.29.92L1.34,655,0,659.14a.83.83,0,0,0,.29.92l3.4,2.55L5,666.74a.8.8,0,0,0,.77.57H10l3.39,2.55a.84.84,0,0,0,.48.16.77.77,0,0,0,.48-.16l3.39-2.55Z" transform="translate(0.04 0)" style="fill:#5bb534"/><path d="M14.56,659.34l.11-.11L27,646.83l-1.06-1.07L13.51,658.24l-6.18-6.18-1.06,1.07,6.05,6.07.11.12,1.06,1.08Z" transform="translate(0.04 0)" style="fill:#fff;stroke:#fff;stroke-miterlimit:10"/><path d="M13.85,377.05a7.34,7.34,0,0,0-7.5,7.16c0,5,6.77,10.39,7.06,10.67a.65.65,0,0,0,.88,0c.29-.28,7.06-5.71,7.06-10.67A7.34,7.34,0,0,0,13.85,377.05Zm3.72,6.76a.64.64,0,0,1-.59.4h-.63v3a.61.61,0,0,1-.62.6H12a.61.61,0,0,1-.63-.6v-3h-.62a.6.6,0,0,1-.59-.4.56.56,0,0,1,.2-.66l3.12-2.39a.66.66,0,0,1,.78,0l3.13,2.39A.61.61,0,0,1,17.57,383.81Z" transform="translate(0.04 0)" style="fill:#fc4c57"/><path d="M17.67,438.91a2.79,2.79,0,0,0,.33-5.57h-.33a2.79,2.79,0,0,0-.33,5.57Zm-7.64,0a2.79,2.79,0,0,0,.33-5.57H10a2.79,2.79,0,0,0-.33,5.57Zm0,1.86c-2.19,0-6.68,1.12-6.68,3.25v1.08a1.25,1.25,0,0,0,1.24,1.24H15.47a1.23,1.23,0,0,0,1.24-1.22V444c0-2.11-4.48-3.23-6.71-3.23Zm7.64,0a4.19,4.19,0,0,0-1,.09A3.82,3.82,0,0,1,18.62,444v1.08a1.25,1.25,0,0,0,1.24,1.24h3.25a1.25,1.25,0,0,0,1.24-1.24V444C24.35,441.89,19.86,440.77,17.67,440.77Z" transform="translate(0.04 0)" style="fill:#383938"/><path d="M11.66,486.37H9.91a1.08,1.08,0,0,0-1.06,1.06V500a.47.47,0,0,0,.46.49H9.4a.49.49,0,0,0,.52-.46V488.3a.93.93,0,0,1,.92-.91h0a.91.91,0,0,1,.91.91h0v12.1a1.07,1.07,0,0,0,1.05,1.07l.2,0,5-.85a1.06,1.06,0,0,0,.88-1.05v-11.9a.92.92,0,0,0-.76-.9s-3.87-.82-5.55-.95a1,1,0,0,0-.75.51A.17.17,0,0,1,11.66,486.37Zm1.39,7.84a.55.55,0,1,1,.43-.65.49.49,0,0,1,0,.12A.5.5,0,0,1,13.05,494.21Z" transform="translate(0.04 0)" style="fill:#383938"/><path d="M20.52,546.22a.7.7,0,0,1-.29-.6v-2.78a1.9,1.9,0,0,0-1.87-1.91h-9a1.9,1.9,0,0,0-1.87,1.91h0v2.78a.69.69,0,0,1-.3.6,1.94,1.94,0,0,0-.83,1.59V552a.65.65,0,0,1,.29.11.37.37,0,0,1,.09.28v.76a.75.75,0,0,0,1.5,0,2,2,0,0,1,.24-.9c.21-.21.94-.25.94-.25h8.88s.73,0,.94.25a2,2,0,0,1,.25.9.75.75,0,0,0,1.5,0v-.76a.32.32,0,0,1,.08-.28.65.65,0,0,1,.29-.11v-4.2A1.92,1.92,0,0,0,20.52,546.22Zm-6.95-1.09a.76.76,0,0,1-.75.77H9.08a.76.76,0,0,1-.76-.76h0a1.53,1.53,0,0,1,1.53-1.52h2.21a1.53,1.53,0,0,1,1.51,1.51Zm5.05.77H14.89a.76.76,0,0,1-.76-.76h0a1.53,1.53,0,0,1,1.51-1.51h2.22a1.53,1.53,0,0,1,1.52,1.52.76.76,0,0,1-.76.76Z" transform="translate(0.04 0)" style="fill:#383938"/><path d="M19.65,165.08a4.1,4.1,0,0,0-5.8,0h0l-6.06,6.06a.57.57,0,0,0-.15.3l-.78,5.84a.49.49,0,0,0,.15.44.52.52,0,0,0,.37.16h.07l5.79-.78a.55.55,0,0,0-.14-1.1h0l-5.1.72.55-4.07,4.28,4.29a.52.52,0,0,0,.74,0h0l6.06-6.06a4.1,4.1,0,0,0,0-5.8h0Zm-5.59,1.31,1.78,1.79-5.13,5.12-1.78-1.78Zm-.84,9.41-1.75-1.74,5.13-5.13,1.75,1.75Zm5.87-5.89-4.27-4.27a3,3,0,0,1,4.27,4.27Z" transform="translate(0.04 0)" style="fill:#fff"/><path d="M22.75,224.37c-2.83-3.54-5.87-5.28-9-5.19-5.11.14-8.62,5-8.77,5.21H5v.06H5v.06H5v.19H5v.06H5c.15.21,3.66,5.06,8.77,5.21H14c3.08,0,6-1.74,8.8-5.19a.5.5,0,0,0,.1-.31A.4.4,0,0,0,22.75,224.37Zm-9,4.83c-4-.11-7-3.51-7.83-4.53.82-1,3.85-4.41,7.83-4.53,2.77-.07,5.46,1.45,8,4.53C19.21,227.76,16.52,229.29,13.75,229.2Z" transform="translate(0.04 0)" style="fill:#fff"/><path d="M14.09,221.49a3.19,3.19,0,1,0,3.08,3.3v-.12A3.14,3.14,0,0,0,14.09,221.49Zm0,5.4a2.22,2.22,0,1,1,2.15-2.29v.07a2.19,2.19,0,0,1-2.14,2.22Z" transform="translate(0.04 0)" style="fill:#fff"/><path d="M13.85,282.15a2.66,2.66,0,1,1-2.6,2.72v-.06a2.63,2.63,0,0,1,2.6-2.66Z" transform="translate(0.04 0)" style="fill:#fb4b57"/><path d="M16.85,272.53a3,3,0,0,0-6,0,3.05,3.05,0,0,0,.22,1.15l2.78,7,2.78-7A3.05,3.05,0,0,0,16.85,272.53Z" transform="translate(0.04 0)" style="fill:#fb4b57"/></svg>